<?xml version="1.0" encoding="UTF-8"?>
<svg id="Camada_2" data-name="Camada 2" xmlns="http://www.w3.org/2000/svg" viewBox="0 0 1000 1000" >
  <g>
    <path d="m474.22,802.3c-165.31-18.61-284.53-169.36-265.76-336.04,9.06-80.42,48.55-152.62,111.21-203.31,62.76-50.77,141.34-73.98,221.26-65.35l-9.68,89.61c-115.45-12.47-220.07,72.38-233.22,189.14-13.21,117.29,70.36,223.34,186.28,236.39,97.65,11,191.81-49.16,223.88-143.05l85.29,29.14c-21.99,64.37-65.56,120.18-122.69,157.16-58.1,37.6-127.91,54.05-196.57,46.32Z"/>
    <circle cx="511" cy="500" r="69.73"/>
    <polygon points="511.73 120.01 511.73 120 418.19 120 483 509 510.74 508.86 510.74 508.86 538 509 604.29 120.01 511.73 120.01"/>
  </g>
  <path d="m485.38,666.61c-90.91-10.24-156.48-93.14-146.15-184.81,4.98-44.23,26.7-83.94,61.16-111.81,34.52-27.92,77.73-40.69,121.68-35.94l-5.32,49.28c-63.49-6.86-121.03,39.8-128.26,104.02-7.26,64.51,38.69,122.83,102.44,130,53.71,6.05,105.49-27.04,123.13-78.67l46.91,16.02c-12.09,35.4-36.05,66.1-67.47,86.43-31.95,20.68-70.34,29.73-108.1,25.47Z"/>
</svg>